<svg width="24" height="24" xmlns="http://www.w3.org/2000/svg">
  <path fill="#444" d="M 6,5 8,5 8,3 6,3 z M 6,9 8,9 8,7 6,7 z m 0,4 2,0 0,-2 -2,0 z m 0,4 2,0 0,-2 -2,0 z m 0,4 2,0 0,-2 -2,0 z M 13.5,0 C 11.5783,0 10,1.5782972 10,3.5 c 0,1.5682467 1.06894,2.904041 2.5,3.34375 l 0,1.8125 C 11.06894,9.0959589 10,10.431753 10,12 c 0,1.568247 1.06894,2.904041 2.5,3.34375 l 0,1.8125 C 11.06894,17.595959 10,18.931753 10,20.5 c 0,1.921703 1.5783,3.5 3.5,3.5 1.9217,0 3.5,-1.578297 3.5,-3.5 0,-1.568247 -1.06894,-2.904041 -2.5,-3.34375 l 0,-1.8125 C 15.93106,14.904041 17,13.568247 17,12 17,10.431753 15.93106,9.0959589 14.5,8.65625 l 0,-1.8125 C 15.93106,6.404041 17,5.0682467 17,3.5 17,1.5782972 15.4217,0 13.5,0 z m 0,2 C 14.3483,2 15,2.6517028 15,3.5 15,4.3482972 14.3483,5 13.5,5 12.6517,5 12,4.3482972 12,3.5 12,2.6517028 12.6517,2 13.5,2 z m 0,8.5 c 0.8483,0 1.5,0.651703 1.5,1.5 0,0.848297 -0.6517,1.5 -1.5,1.5 -0.8483,0 -1.5,-0.651703 -1.5,-1.5 0,-0.848297 0.6517,-1.5 1.5,-1.5 z m 0,8.5 C 14.3483,19 15,19.651703 15,20.5 15,21.348297 14.3483,22 13.5,22 12.6517,22 12,21.348297 12,20.5 12,19.651703 12.6517,19 13.5,19 z" />
</svg>
