<svg width="24" height="24" xmlns="http://www.w3.org/2000/svg">
 <path fill="#444" d="M 3,8 5,8 5,6 3,6 z M 7,8 9,8 9,6 7,6 z m 4,0 2,0 0,-2 -2,0 z m 4,0 2,0 0,-2 -2,0 z m 4,0 2,0 0,-2 -2,0 z M 3.5,10 C 1.5783,10 0,11.578297 0,13.5 0,15.421703 1.5783,17 3.5,17 5.06824,17 6.40404,15.931065 6.84375,14.5 l 1.8125,0 C 9.09596,15.931065 10.43176,17 12,17 c 1.56824,0 2.90404,-1.068935 3.34375,-2.5 l 1.8125,0 C 17.59596,15.931065 18.93176,17 20.5,17 22.4217,17 24,15.421703 24,13.5 24,11.578297 22.4217,10 20.5,10 c -1.56824,0 -2.90404,1.068935 -3.34375,2.5 l -1.8125,0 C 14.90404,11.068935 13.56824,10 12,10 10.43176,10 9.09596,11.068935 8.65625,12.5 l -1.8125,0 C 6.40404,11.068935 5.06824,10 3.5,10 z m 0,2 C 4.3483,12 5,12.651703 5,13.5 5,14.348297 4.3483,15 3.5,15 2.6517,15 2,14.348297 2,13.5 2,12.651703 2.6517,12 3.5,12 z m 8.5,0 c 0.8483,0 1.5,0.651703 1.5,1.5 0,0.848297 -0.6517,1.5 -1.5,1.5 -0.8483,0 -1.5,-0.651703 -1.5,-1.5 0,-0.848297 0.6517,-1.5 1.5,-1.5 z m 8.5,0 C 21.3483,12 22,12.651703 22,13.5 22,14.348297 21.3483,15 20.5,15 19.6517,15 19,14.348297 19,13.5 19,12.651703 19.6517,12 20.5,12 z" />
</svg>
