<svg width="24" height="24" xmlns="http://www.w3.org/2000/svg">
  <path fill="#444" d="M 12,0 C 10.078297,0 8.5,1.5782972 8.5,3.5 8.5,5.0682467 9.568935,6.404041 11,6.84375 l 0,1.8125 C 10.47623,8.8103842 10.01429,9.0768322 9.625,9.4375 L 8.0625,8.5 C 8.113404,8.2638987 8.125,8 8.125,7.75 c 10e-7,-1.9217032 -1.578297,-3.5000002 -3.5,-3.5 -1.921702,-3e-7 -3.5,1.5782968 -3.5,3.5 0,1.9217027 1.578298,3.5 3.5,3.5 0.976205,0 1.862909,-0.37856 2.5,-1.03125 l 1.5,0.90625 C 8.554084,11.403555 8.5,11.698763 8.5,12 c 0,0.301237 0.054084,0.596445 0.125,0.875 l -1.5,0.90625 C 6.490213,13.146463 5.617101,12.75 4.65625,12.75 c -1.921703,-10e-7 -3.500001,1.578297 -3.5,3.5 0,1.921702 1.578297,3.5 3.5,3.5 1.921702,0 3.500001,-1.578298 3.5,-3.5 0,-0.261364 -0.038467,-0.504447 -0.09375,-0.75 L 9.625,14.5625 c 0.38929,0.360668 0.85123,0.627116 1.375,0.78125 l 0,1.8125 C 9.568935,17.595959 8.5,18.931753 8.5,20.5 c 0,1.921703 1.578297,3.5 3.5,3.5 1.921703,0 3.5,-1.578297 3.5,-3.5 0,-1.568247 -1.068935,-2.904041 -2.5,-3.34375 l 0,-1.8125 c 0.52377,-0.154134 0.98571,-0.420582 1.375,-0.78125 L 15.9375,15.5 c -0.05528,0.245552 -0.09375,0.488636 -0.09375,0.75 10e-7,1.921703 1.578297,3.499999 3.5,3.5 1.921703,0 3.500001,-1.578297 3.5,-3.5 0,-1.921703 -1.578296,-3.5 -3.5,-3.5 -0.960851,0 -1.833963,0.396463 -2.46875,1.03125 L 15.375,12.875 C 15.445916,12.596445 15.5,12.301237 15.5,12 c 0,-0.301237 -0.05408,-0.596445 -0.125,-0.875 l 1.53125,-0.90625 c 0.634787,0.634787 1.507899,1.03125 2.46875,1.03125 1.921703,0 3.500001,-1.5782968 3.5,-3.5 1e-6,-1.9217028 -1.578297,-3.4999999 -3.5,-3.5 -1.921702,3e-7 -3.5,1.5782973 -3.5,3.5 0,0.25 0.01159,0.5138987 0.0625,0.75 L 14.375,9.4375 C 13.98571,9.0768322 13.52377,8.8103842 13,8.65625 l 0,-1.8125 C 14.431065,6.404041 15.5,5.0682467 15.5,3.5 15.5,1.5782972 13.921703,0 12,0 z m 0,2 c 0.848297,0 1.5,0.6517028 1.5,1.5 C 13.5,4.3482972 12.848297,5 12,5 11.151703,5 10.5,4.3482972 10.5,3.5 10.5,2.6517028 11.151703,2 12,2 z M 4.625,6.25 c 0.848297,-2e-7 1.5,0.6517028 1.5,1.5 0,0.8482968 -0.651703,1.4999998 -1.5,1.5 -0.848296,-4e-7 -1.499999,-0.6517032 -1.5,-1.5 1e-6,-0.8482972 0.651704,-1.5000004 1.5,-1.5 z m 14.75,0 c 0.848297,2e-7 1.5,0.6517033 1.5,1.5 0,0.8482973 -0.651703,1.5000002 -1.5,1.5 -0.848296,4e-7 -1.499999,-0.6517027 -1.5,-1.5 1e-6,-0.8482967 0.651704,-1.4999996 1.5,-1.5 z m -14.71875,8.5 c 0.848296,-10e-7 1.499999,0.651703 1.5,1.5 0,0.848296 -0.651704,1.499999 -1.5,1.5 -0.848297,0 -1.499999,-0.651704 -1.5,-1.5 1e-6,-0.848297 0.651703,-1.5 1.5,-1.5 z m 14.6875,0 c 0.848297,0 1.5,0.651703 1.5,1.5 1e-6,0.848297 -0.651703,1.5 -1.5,1.5 -0.848297,1e-6 -1.499999,-0.651703 -1.5,-1.5 0,-0.848297 0.651703,-1.5 1.5,-1.5 z M 12,19 c 0.848297,0 1.5,0.651703 1.5,1.5 0,0.848297 -0.651703,1.5 -1.5,1.5 -0.848297,0 -1.5,-0.651703 -1.5,-1.5 0,-0.848297 0.651703,-1.5 1.5,-1.5 z" />
</svg>
