<svg width="24" height="24" xmlns="http://www.w3.org/2000/svg">
  <path fill="#444" d="M 12,0 C 10.061,0 8.5,1.561 8.5,3.5 8.5,3.9605125 8.589748,4.4104787 8.75,4.8125 L 4.8125,8.75 C 4.403997,8.5815135 3.966699,8.5 3.5,8.5 1.578297,8.5 0,10.078297 0,12 0,13.921703 1.578297,15.5 3.5,15.5 5.421703,15.5 7,13.921703 7,12 7,11.270942 6.793149,10.594025 6.40625,10.03125 l 3.625,-3.625 C 10.32376,6.603541 10.653053,6.741651 11,6.84375 l 0,1.8125 C 9.568935,9.0959589 8.5,10.431753 8.5,12 c 0,1.201064 0.630943,2.274959 1.5625,2.90625 L 8.40625,17.125 C 8.111708,17.043598 7.81914,17 7.5,17 5.578297,17 4,18.578297 4,20.5 4,22.421703 5.578297,24 7.5,24 9.421703,24 11,22.421703 11,20.5 11,19.608984 10.649265,18.807774 10.09375,18.1875 l 1.90625,-2.5 1.90625,2.5 C 13.350735,18.807774 13,19.608984 13,20.5 13,22.421703 14.578297,24 16.5,24 18.421703,24 20,22.421703 20,20.5 20,18.578297 18.421703,17 16.5,17 c -0.31914,0 -0.611708,0.0436 -0.90625,0.125 L 13.9375,14.90625 C 14.869057,14.274959 15.5,13.201064 15.5,12 15.5,10.431753 14.431065,9.0959589 13,8.65625 l 0,-1.8125 c 0.346947,-0.102099 0.67624,-0.240209 0.96875,-0.4375 l 3.625,3.625 C 17.206851,10.594025 17,11.270942 17,12 c 0,1.921703 1.578297,3.5 3.5,3.5 1.921703,0 3.5,-1.578297 3.5,-3.5 0,-1.921703 -1.578297,-3.5 -3.5,-3.5 -0.466699,0 -0.903997,0.081513 -1.3125,0.25 L 15.25,4.8125 C 15.410252,4.4104787 15.5,3.9605125 15.5,3.5 15.5,1.561 13.939,0 12,0 z M 3.5,10.5 C 4.348297,10.5 5,11.151703 5,12 5,12.848297 4.348297,13.5 3.5,13.5 2.651703,13.5 2,12.848297 2,12 2,11.151703 2.651703,10.5 3.5,10.5 z m 8.5,0 c 0.848297,0 1.5,0.651703 1.5,1.5 0,0.848297 -0.651703,1.5 -1.5,1.5 -0.848297,0 -1.5,-0.651703 -1.5,-1.5 0,-0.848297 0.651703,-1.5 1.5,-1.5 z m 8.5,0 c 0.848297,0 1.5,0.651703 1.5,1.5 0,0.848297 -0.651703,1.5 -1.5,1.5 -0.848297,0 -1.5,-0.651703 -1.5,-1.5 0,-0.848297 0.651703,-1.5 1.5,-1.5 z M 7.5,19 C 8.348297,19 9,19.651703 9,20.5 9,21.348297 8.348297,22 7.5,22 6.651703,22 6,21.348297 6,20.5 6,19.651703 6.651703,19 7.5,19 z m 9,0 C 17.348297,19 18,19.651703 18,20.5 18,21.348297 17.348297,22 16.5,22 15.651703,22 15,21.348297 15,20.5 15,19.651703 15.651703,19 16.5,19 z" />
</svg>
