<svg width="24" height="24" xmlns="http://www.w3.org/2000/svg">
  <path fill="#444" d="M 7.6889224,14.505104 C 8.6497739,16.169348 8.072077,18.325342 6.4078335,19.286193 4.7435901,20.247045 2.5875961,19.669348 1.6267446,18.005104 0.66589312,16.340861 1.2435901,14.184867 2.9078335,13.224015 4.572077,12.263164 6.7280709,12.840861 7.6889224,14.505104 z m -1.7320508,1 C 5.5327231,14.770457 4.6424804,14.531918 3.9078335,14.956066 c -0.7346469,0.424149 -0.9731866,1.314391 -0.5490381,2.049038 0.4241485,0.734647 1.3143912,0.973187 2.0490381,0.549038 0.7346469,-0.424148 0.9731866,-1.314391 0.5490381,-2.049038 z M 22.411354,6.0051042 c 0.960852,1.6642436 0.383155,3.8202374 -1.281089,4.7810888 -1.664243,0.960852 -3.820237,0.383155 -4.781089,-1.2810888 -0.960851,-1.6642436 -0.383154,-3.8202374 1.281089,-4.7810889 1.664244,-0.9608515 3.820238,-0.3831547 4.781089,1.2810889 z m -1.732051,1 C 20.255155,6.2704575 19.364912,6.0319176 18.630265,6.4560661 17.895619,6.8802146 17.657079,7.7704575 18.081227,8.5051042 18.505376,9.239751 19.395619,9.4782908 20.130265,9.0541423 20.864912,8.6299938 21.103452,7.739751 20.679303,7.0051042 z M 7.6749772,9.5190494 C 8.6358286,7.854806 8.0581318,5.6988119 6.3938883,4.7379605 4.7296449,3.7771091 2.5736508,4.354806 1.6127994,6.0190494 0.65194802,7.6832929 1.2296449,9.8392869 2.8938883,10.800138 4.5581318,11.76099 6.7141258,11.183293 7.6749772,9.5190494 z m -1.7320508,-1 C 5.5187778,9.2536963 4.6285352,9.4922361 3.8938883,9.0680875 3.1592414,8.6439389 2.9207016,7.7536963 3.3448502,7.0190494 3.7689988,6.2844025 4.6592414,6.0458627 5.3938883,6.4700113 6.1285352,6.8941599 6.367075,7.7844025 5.9429264,8.5190494 z M 22.397409,18.019049 c 0.960851,-1.664243 0.383155,-3.820237 -1.281089,-4.781088 -1.664243,-0.960852 -3.820237,-0.383155 -4.781089,1.281088 -0.960851,1.664244 -0.383154,3.820238 1.281089,4.781089 1.664244,0.960852 3.820238,0.383155 4.781089,-1.281089 z m -1.732051,-1 c -0.424148,0.734647 -1.314391,0.973187 -2.049038,0.549039 -0.734647,-0.424149 -0.973187,-1.314392 -0.549038,-2.049039 0.424149,-0.734647 1.314391,-0.973186 2.049038,-0.549038 0.734647,0.424149 0.973187,1.314391 0.549038,2.049038 z M 12,17 c -1.921703,0 -3.5,1.578297 -3.5,3.5 0,1.921703 1.578297,3.5 3.5,3.5 1.921703,0 3.5,-1.578297 3.5,-3.5 C 15.5,18.578297 13.921703,17 12,17 z m 0,2 c 0.848297,0 1.5,0.651703 1.5,1.5 0,0.848297 -0.651703,1.5 -1.5,1.5 -0.848297,0 -1.5,-0.651703 -1.5,-1.5 0,-0.848297 0.651703,-1.5 1.5,-1.5 z M 12,0 C 10.078297,0 8.5,1.5782972 8.5,3.5 8.5,5.4217028 10.078297,7 12,7 13.921703,7 15.5,5.4217028 15.5,3.5 15.5,1.5782972 13.921703,0 12,0 z m 0,2 c 0.848297,0 1.5,0.6517028 1.5,1.5 C 13.5,4.3482972 12.848297,5 12,5 11.151703,5 10.5,4.3482972 10.5,3.5 10.5,2.6517028 11.151703,2 12,2 z" />
</svg>
