<svg width="24" height="24" xmlns="http://www.w3.org/2000/svg">
 <path fill="#444" d="M3.5,8.5c-1.9217,0-3.5,1.578-3.5,3.5s1.5783,3.5,3.5,3.5,3.5-1.578,3.5-3.5-1.5783-3.5-3.5-3.5zm0,2c0.8483,0,1.5,0.652,1.5,1.5s-0.6517,1.5-1.5,1.5-1.5-0.652-1.5-1.5,0.6517-1.5,1.5-1.5zm0,6.5c-1.9217,0-3.5,1.578-3.5,3.5s1.5783,3.5,3.5,3.5,3.5-1.578,3.5-3.5-1.5783-3.5-3.5-3.5zm0,2c0.8483,0,1.5,0.652,1.5,1.5s-0.6517,1.5-1.5,1.5-1.5-0.652-1.5-1.5,0.6517-1.5,1.5-1.5zm0-19c-1.9217,0-3.5,1.5783-3.5,3.5s1.5783,3.5,3.5,3.5,3.5-1.5783,3.5-3.5-1.5783-3.5-3.5-3.5zm0,2c0.8483,0,1.5,0.6517,1.5,1.5s-0.6517,1.5-1.5,1.5-1.5-0.6517-1.5-1.5,0.6517-1.5,1.5-1.5zm17,6.5c-1.9217,0-3.5,1.5783-3.5,3.5s1.5783,3.5,3.5,3.5,3.5-1.5783,3.5-3.5-1.5783-3.5-3.5-3.5zm0,2c0.8483,0,1.5,0.6517,1.5,1.5s-0.6517,1.5-1.5,1.5-1.5-0.6517-1.5-1.5,0.6517-1.5,1.5-1.5zm0,6.5c-1.922,0-3.5,1.578-3.5,3.5s1.578,3.5,3.5,3.5,3.5-1.578,3.5-3.5-1.578-3.5-3.5-3.5zm0,2c0.848,0,1.5,0.652,1.5,1.5s-0.652,1.5-1.5,1.5-1.5-0.652-1.5-1.5,0.652-1.5,1.5-1.5zm0-19c-1.922,0-3.5,1.5783-3.5,3.5s1.578,3.5,3.5,3.5,3.5-1.5783,3.5-3.5-1.578-3.5-3.5-3.5zm0,2c0.848,0,1.5,0.6517,1.5,1.5s-0.652,1.5-1.5,1.5-1.5-0.6517-1.5-1.5,0.652-1.5,1.5-1.5zm-8.5,6.5c-1.9217,0-3.5,1.5783-3.5,3.5s1.5783,3.5,3.5,3.5,3.5-1.5783,3.5-3.5-1.5783-3.5-3.5-3.5zm0,2c0.8483,0,1.5,0.6517,1.5,1.5s-0.6517,1.5-1.5,1.5-1.5-0.6517-1.5-1.5,0.6517-1.5,1.5-1.5zm0,6.5c-1.9217,0-3.5,1.5783-3.5,3.5s1.5783,3.5,3.5,3.5,3.5-1.5783,3.5-3.5c0-1.922-1.578-3.5-3.5-3.5zm0,2c0.8483,0,1.5,0.6517,1.5,1.5s-0.6517,1.5-1.5,1.5-1.5-0.6517-1.5-1.5,0.6517-1.5,1.5-1.5zm0-19c-1.922,0-3.5,1.5783-3.5,3.5s1.578,3.5,3.5,3.5,3.5-1.5783,3.5-3.5-1.578-3.5-3.5-3.5zm0,2c0.8483,0,1.5,0.6517,1.5,1.5s-0.652,1.5-1.5,1.5-1.5-0.6517-1.5-1.5,0.652-1.5,1.5-1.5z"/>
</svg>
