<svg width="24" height="24" xmlns="http://www.w3.org/2000/svg">
  <path fill="#444" d="m 6.917427,16.40625 1.84375,0.84375 0.8125,-1.84375 -1.8125,-0.8125 z m 3.65625,1.65625 1.8125,0.8125 0.84375,-1.8125 -1.84375,-0.8125 z m 3.65625,1.65625 1.8125,0.8125 0.8125,-1.8125 -1.8125,-0.84375 z m -7.1875,-12.75 1.625,1.1875 1.1875,-1.59375 -1.59375,-1.21875 z m -2.375,3.1875 1.59375,1.1875 L 7.448677,9.75 5.854927,8.5625 z m 8.59375,-2.3125 0.875,1.78125 1.8125,-0.875 -0.875,-1.78125 z m 1.75,3.59375 0.90625,1.78125 1.78125,-0.875 -0.875,-1.78125 z m 1.78125,3.59375 0.875,1.78125 1.78125,-0.875 -0.875,-1.78125 z M 3.500001,10.507198 c 1.921696,10e-7 3.500006,1.578291 3.499996,3.500001 0,1.921701 -1.57829,3.499996 -3.499996,3.499998 C 1.578297,17.507196 0,15.9289 0,14.007196 0,12.085492 1.578297,10.507197 3.500001,10.507198 z m -3e-6,2 c -0.848296,0 -1.499999,0.651701 -1.499997,1.499998 -2e-6,0.848298 0.651701,1.500001 1.5,1.500001 0.848296,0 1.499996,-0.651701 1.499996,-1.499998 1e-5,-0.848301 -0.6517,-1.500003 -1.499999,-1.500001 z m 20.498249,7.981272 c 0,-1.921701 -1.5783,-3.499999 -3.5,-3.499999 -1.9217,-1e-6 -3.49999,1.578294 -3.5,3.500001 0,1.921702 1.5783,3.499999 3.5,3.499999 1.9217,1e-6 3.5,-1.578298 3.5,-3.500001 z m -2,0 c 0,0.848298 -0.6517,1.500001 -1.5,1.500001 -0.8483,0 -1.49999,-0.651706 -1.5,-1.499999 0,-0.848297 0.6517,-1.500001 1.5,-1.500001 0.8483,0 1.5,0.651702 1.5,1.499999 z M 12.011177,0 c -1.9217,0 -3.5,1.5782972 -3.5,3.5 0,1.9217028 1.5783,3.5 3.5,3.5 1.9217,0 3.5,-1.5782972 3.5,-3.5 0,-1.9217028 -1.5783,-3.5 -3.5,-3.5 z m 0,2 c 0.8483,0 1.5,0.6517028 1.5,1.5 0,0.8482972 -0.6517,1.5 -1.5,1.5 -0.8483,0 -1.5,-0.6517028 -1.5,-1.5 0,-0.8482972 0.6517,-1.5 1.5,-1.5 z" />
</svg>
