<svg width="24" height="24" xmlns="http://www.w3.org/2000/svg">
  <path fill="#444" d="M 7,5 C 5.89543,5 5,5.8954305 5,7 5,7.7396043 5.4031,8.3727074 6,8.71875 l 0,6.5625 C 5.4031,15.627293 5,16.260396 5,17 c 0,1.104569 0.89543,2 2,2 0.7396,0 1.37271,-0.403104 1.71875,-1 l 6.5625,0 c 0.34604,0.596896 0.97915,1 1.71875,1 1.10457,0 2,-0.895431 2,-2 0,-0.739604 -0.4031,-1.372707 -1,-1.71875 l 0,-6.5625 C 18.5969,8.3727074 19,7.7396043 19,7 19,5.8954305 18.10457,5 17,5 16.2604,5 15.62729,5.4031044 15.28125,6 L 8.71875,6 C 8.37271,5.4031044 7.7396,5 7,5 z m 1.71875,3 6.5625,0 C 15.45653,8.3023514 15.69765,8.5434657 16,8.71875 l 0,6.5625 C 15.69765,15.456534 15.45653,15.697649 15.28125,16 l -6.5625,0 C 8.54347,15.697649 8.30235,15.456534 8,15.28125 L 8,8.71875 C 8.30235,8.5434657 8.54347,8.3023514 8.71875,8 z M 21,7 23,7 23,5 21,5 z m 0,4 2,0 0,-2 -2,0 z m 0,4 2,0 0,-2 -2,0 z m 0,4 2,0 0,-2 -2,0 z M 1,7 3,7 3,5 1,5 z m 0,4 2,0 0,-2 -2,0 z m 0,4 2,0 0,-2 -2,0 z m 0,4 2,0 0,-2 -2,0 z m 4,4 2,0 0,-2 -2,0 z m 4,0 2,0 0,-2 -2,0 z m 4,0 2,0 0,-2 -2,0 z m 4,0 2,0 0,-2 -2,0 z M 24,2.000007 c 0,1.104569 -0.89543,2 -2,2 -1.10457,0 -2,-0.895431 -2,-2 0,-1.104569 0.89543,-2 2,-2 1.10457,0 2,0.895431 2,2 z M 4,22 c 0,1.104569 -0.89543,2 -2,2 -1.10457,0 -2,-0.895431 -2,-2 0,-1.104569 0.89543,-2 2,-2 1.10457,0 2,0.895431 2,2 z M 4,2 C 4,3.104569 3.10457,4 2,4 0.89543,4 0,3.104569 0,2 0,0.895431 0.89543,0 2,0 3.10457,0 4,0.895431 4,2 z m 20,20 c 0,1.104569 -0.89543,2 -2,2 -1.10457,0 -2,-0.895431 -2,-2 0,-1.104569 0.89543,-2 2,-2 1.10457,0 2,0.895431 2,2 z M 5,3 7,3 7,1 5,1 z m 4,0 2,0 0,-2 -2,0 z m 4,0 2,0 0,-2 -2,0 z m 4,0 2,0 0,-2 -2,0 z" />
</svg>
