<svg width="24" height="24" xmlns="http://www.w3.org/2000/svg">
  <path fill="#444" d="M 0.480856,3.46875 C 0.342136,3.6079629 0.261632,3.803472 0.262106,4 l 0,3 c -0.0022,0.2871499 0.17646,0.5678422 0.4375,0.6875 l 6.5625,2.96875 0,2.34375 c -4.74e-4,0.196528 0.08003,0.392037 0.21875,0.53125 l 1,1 c 0.103936,0.09623 0.235658,0.162087 0.375,0.1875 l 13,3 c 0.05078,0.01592 0.103255,0.02642 0.15625,0.03125 l 1,0 c 0.686769,0.01158 0.942093,-1.162914 0.3125,-1.4375 L 6.762106,8.78125 6.762106,4 C 6.760306,3.7522259 6.626636,3.5092193 6.418356,3.375 3.01089,0.88400719 3.242835,0.70677058 0.480856,3.46875 z m 4.78125,0.9375 0,3.6875 -3.5,-1.59375 0,-2.1875 c 1.421317,-1.7915645 1.769193,-1.0601215 3.5,0.09375 z m 4.25,6.75 c 0.736377,0 1.34375,0.607373 1.34375,1.34375 0,0.736377 -0.607373,1.34375 -1.34375,1.34375 -0.736377,0 -1.34375,-0.607373 -1.34375,-1.34375 0,-0.736377 0.607373,-1.34375 1.34375,-1.34375 z" />
  <path fill="#444" d="m 22.012106,7.25 c -0.05299,0.00483 -0.10547,0.01533 -0.15625,0.03125 l -9.78125,2.25 4.6875,2.15625 6.5625,-3 C 23.954199,8.412914 23.698875,7.23842 23.012106,7.25 z m -15.5,7.4375 -5.8125,2.625 c -0.26104,0.119658 -0.4397,0.40035 -0.4375,0.6875 l 0,3 c -4.74e-4,0.196528 0.08003,0.392037 0.21875,0.53125 2.676223,3.033911 2.646778,2.287565 5.9375,0.09375 0.20828,-0.134219 0.34195,-0.377226 0.34375,-0.625 l 0,-4.78125 0.9375,-0.4375 c -0.08002,-0.05488 -0.177293,-0.08893 -0.25,-0.15625 l -0.03125,-0.03125 z m -1.25,2.21875 0,3.6875 c -1.84878,1.381699 -1.945243,1.648507 -3.5,0.09375 l 0,-2.1875 z" />
</svg>
