<svg width="24" height="24" xmlns="http://www.w3.org/2000/svg">
  <path fill="#444" d="m 6,5 0,2 4,0 0,-2 -4,0 z m 8,0 0,2 4,0 0,-2 -4,0 z m 5,-1 0,5 2,0 0,-5 -2,0 z m -8,0 0,5 2,0 0,-5 -2,0 z M 3,4 3,9 5,9 5,4 3,4 z m 0.5,7 C 1.5783,11 0,12.578297 0,14.5 0,16.421703 1.5783,18 3.5,18 5.06824,18 6.40404,16.931065 6.84375,15.5 l 1.8125,0 C 9.09596,16.931065 10.43176,18 12,18 c 1.56824,0 2.90404,-1.068935 3.34375,-2.5 l 1.8125,0 C 17.59596,16.931065 18.93176,18 20.5,18 22.4217,18 24,16.421703 24,14.5 24,12.578297 22.4217,11 20.5,11 c -1.56824,0 -2.90404,1.068935 -3.34375,2.5 l -1.8125,0 C 14.90404,12.068935 13.56824,11 12,11 10.43176,11 9.09596,12.068935 8.65625,13.5 l -1.8125,0 C 6.40404,12.068935 5.06824,11 3.5,11 z m 0,2 C 4.3483,13 5,13.651703 5,14.5 5,15.348297 4.3483,16 3.5,16 2.6517,16 2,15.348297 2,14.5 2,13.651703 2.6517,13 3.5,13 z m 8.5,0 c 0.8483,0 1.5,0.651703 1.5,1.5 0,0.848297 -0.6517,1.5 -1.5,1.5 -0.8483,0 -1.5,-0.651703 -1.5,-1.5 0,-0.848297 0.6517,-1.5 1.5,-1.5 z m 8.5,0 C 21.3483,13 22,13.651703 22,14.5 22,15.348297 21.3483,16 20.5,16 19.6517,16 19,15.348297 19,14.5 19,13.651703 19.6517,13 20.5,13 z" />
</svg>
