<svg width="24" height="24" xmlns="http://www.w3.org/2000/svg">
  <path fill="#444" d="m 5,14 0,4 2,0 0,-4 -2,0 z M 5,6 5,10 7,10 7,6 5,6 z M 4,3 4,5 9,5 9,3 4,3 z m 0,8 0,2 5,0 0,-2 -5,0 z m 0,8 0,2 5,0 0,-2 -5,0 z M 14.5,0 C 12.5783,0 11,1.5782972 11,3.5 c 0,1.5682467 1.06894,2.904041 2.5,3.34375 l 0,1.8125 C 12.06894,9.0959589 11,10.431753 11,12 c 0,1.568247 1.06894,2.904041 2.5,3.34375 l 0,1.8125 C 12.06894,17.595959 11,18.931753 11,20.5 c 0,1.921703 1.5783,3.5 3.5,3.5 1.9217,0 3.5,-1.578297 3.5,-3.5 0,-1.568247 -1.06894,-2.904041 -2.5,-3.34375 l 0,-1.8125 C 16.93106,14.904041 18,13.568247 18,12 18,10.431753 16.93106,9.0959589 15.5,8.65625 l 0,-1.8125 C 16.93106,6.404041 18,5.0682467 18,3.5 18,1.5782972 16.4217,0 14.5,0 z m 0,2 C 15.3483,2 16,2.6517028 16,3.5 16,4.3482972 15.3483,5 14.5,5 13.6517,5 13,4.3482972 13,3.5 13,2.6517028 13.6517,2 14.5,2 z m 0,8.5 c 0.8483,0 1.5,0.651703 1.5,1.5 0,0.848297 -0.6517,1.5 -1.5,1.5 -0.8483,0 -1.5,-0.651703 -1.5,-1.5 0,-0.848297 0.6517,-1.5 1.5,-1.5 z m 0,8.5 C 15.3483,19 16,19.651703 16,20.5 16,21.348297 15.3483,22 14.5,22 13.6517,22 13,21.348297 13,20.5 13,19.651703 13.6517,19 14.5,19 z" />
</svg>
