<svg width="24" height="24" xmlns="http://www.w3.org/2000/svg">
  <path fill="#444" d="m 16,11 0,2 2,0 0,-2 -2,0 z m -10,0 0,2 2,0 0,-2 -2,0 z m 5,5 0,2 2,0 0,-2 -2,0 z m 8,-8.999993 c 0,1.104569 -0.89543,2 -2,2 -1.10457,0 -2,-0.895431 -2,-2 0,-1.104569 0.89543,-2 2,-2 1.10457,0 2,0.895431 2,2 z M 9,17 c 0,1.104569 -0.89543,2 -2,2 -1.10457,0 -2,-0.895431 -2,-2 0,-1.104569 0.89543,-2 2,-2 1.10457,0 2,0.895431 2,2 z M 9,7 C 9,8.104569 8.10457,9 7,9 5.89543,9 5,8.104569 5,7 5,5.895431 5.89543,5 7,5 8.10457,5 9,5.895431 9,7 z m 10,10 c 0,1.104569 -0.89543,2 -2,2 -1.10457,0 -2,-0.895431 -2,-2 0,-1.104569 0.89543,-2 2,-2 1.10457,0 2,0.895431 2,2 z M 11,6 11,8 13,8 13,6 11,6 z M 2,0 C 0.89543,0 0,0.8954305 0,2 0,2.7396043 0.4031,3.3727074 1,3.71875 l 0,16.5625 C 0.4031,20.627293 0,21.260396 0,22 c 0,1.104569 0.89543,2 2,2 0.7396,0 1.37271,-0.403104 1.71875,-1 l 16.5625,0 c 0.34604,0.596896 0.97915,1 1.71875,1 1.10457,0 2,-0.895431 2,-2 0,-0.739604 -0.4031,-1.372707 -1,-1.71875 L 23,3.71875 C 23.5969,3.3727074 24,2.7396043 24,2 24,0.8954305 23.10457,0 22,0 21.2604,0 20.62729,0.4031044 20.28125,1 L 3.71875,1 C 3.37271,0.4031044 2.7396,0 2,0 z m 1.71875,3 16.5625,0 C 20.45653,3.3023514 20.69765,3.5434657 21,3.71875 l 0,16.5625 C 20.69765,20.456534 20.45653,20.697649 20.28125,21 L 3.71875,21 C 3.54347,20.697649 3.30235,20.456534 3,20.28125 L 3,3.71875 C 3.30235,3.5434657 3.54347,3.3023514 3.71875,3 z" />
</svg>
