<svg width="24" height="24" xmlns="http://www.w3.org/2000/svg">
  <path fill="#444" d="M 11,0 C 4.93671,0 0,4.9367117 0,11 c 0,6.063289 4.93671,11 11,11 2.33012,0 4.4983,-0.724986 6.28125,-1.96875 a 2,2 0 0 0 0.3125,0.375 l 3,3 a 2,2 0 1 0 2.8125,-2.8125 l -3,-3 a 2,2 0 0 0 -0.375,-0.3125 C 21.27501,15.498298 22,13.330124 22,11 22,4.9367117 17.06329,0 11,0 z m 0,2 c 4.98241,0 9,4.0175916 9,9 0,4.982409 -4.01759,9 -9,9 C 6.01759,20 2,15.982408 2,11 2,6.0175916 6.01759,2 11,2 z m 0,3 C 9.89543,5 9,5.8954305 9,7 9,8.062336 9.82901,8.9351095 10.875,9 l 1.4375,2.906251 c -0.0199,0.03081 -0.0443,0.06181 -0.0625,0.09375 l -2.53125,0 C 9.37271,11.403105 8.7396,11 8,11 c -1.10457,0 -2,0.895432 -2,2 0,1.104569 0.89543,2 2,2 0.7396,0 1.37271,-0.403104 1.71875,-1 l 2.5625,0 c 0.34604,0.596896 0.97915,1 1.71875,1 1.10457,0 2,-0.895431 2,-2 0,-1.062335 -0.82901,-1.935109 -1.875,-2 L 12.6875,8.0937505 C 12.88908,7.7815498 13,7.3992632 13,7 13,5.8954305 12.10457,5 11,5 z" />
</svg>
