<svg width="24" height="24" xmlns="http://www.w3.org/2000/svg">
  <path fill="#444" d="m 9,14 c -1.10457,0 -2,0.895431 -2,2 0,1.104569 0.89543,2 2,2 0.7396,0 1.37271,-0.403104 1.71875,-1 L 13.25,17 c 0.0182,0.03194 0.0426,0.06294 0.0625,0.09375 L 11.875,20 C 10.82901,20.06489 10,20.937664 10,22 c 0,1.104569 0.89543,2 2,2 1.10457,0 2,-0.895431 2,-2 0,-0.399263 -0.11092,-0.78155 -0.3125,-1.09375 L 15.125,18 C 16.17099,17.93511 17,17.062336 17,16 c 0,-1.104569 -0.89543,-2 -2,-2 -0.7396,0 -1.37271,0.403104 -1.71875,1 l -2.5625,0 C 10.37271,14.403104 9.7396,14 9,14 z m -6,-1 2,0 0,-2 -2,0 z m 4,0 2,0 0,-2 -2,0 z m 4,0 2,0 0,-2 -2,0 z m 4,0 2,0 0,-2 -2,0 z m 4,0 2,0 0,-2 -2,0 z M 12,0 c -1.10457,0 -2,0.8954305 -2,2 0,1.062336 0.82901,1.935109 1.875,2 l 1.4375,2.90625 C 13.2926,6.937057 13.2682,6.96806 13.25,7 L 10.71875,7 C 10.37271,6.4031044 9.7396,6 9,6 7.89543,6 7,6.8954305 7,8 c 0,1.1045695 0.89543,2 2,2 0.7396,0 1.37271,-0.4031044 1.71875,-1 l 2.5625,0 C 13.62729,9.5968956 14.2604,10 15,10 16.10457,10 17,9.1045695 17,8 17,6.937664 16.17099,6.064891 15.125,6 L 13.6875,3.09375 C 13.88908,2.7815498 14,2.3992632 14,2 14,0.8954305 13.10457,0 12,0 z" />
</svg>
