<svg width="24" height="24" xmlns="http://www.w3.org/2000/svg">
  <path fill="#444" d="m 19,7 c -1.10457,0 -2,0.8954305 -2,2 0,0.3992632 0.11092,0.7815498 0.3125,1.09375 L 15.875,13 C 14.82901,13.06489 14,13.937664 14,15 c 0,1.104569 0.89543,2 2,2 0.7396,0 1.37271,-0.403104 1.71875,-1 l 2.5625,0 c 0.34604,0.596896 0.97915,1 1.71875,1 1.10457,0 2,-0.895431 2,-2 0,-1.104569 -0.89543,-2 -2,-2 -0.7396,0 -1.37271,0.403104 -1.71875,1 L 17.75,14 C 17.7318,13.96806 17.7074,13.93706 17.6875,13.90625 L 19.125,11 C 20.17099,10.935109 21,10.062336 21,9 21,7.8954305 20.10457,7 19,7 z m -8,-2 2,0 0,-2 -2,0 z m 0,4 2,0 0,-2 -2,0 z m 0,4 2,0 0,-2 -2,0 z m 0,4 2,0 0,-2 -2,0 z m 0,4 2,0 0,-2 -2,0 z M 5,7 C 3.89543,7 3,7.8954305 3,9 c 0,1.062336 0.82901,1.935109 1.875,2 l 1.4375,2.90625 C 6.2926,13.93706 6.2682,13.96806 6.25,14 L 3.71875,14 C 3.37271,13.403104 2.7396,13 2,13 c -1.10457,0 -2,0.895431 -2,2 0,1.104569 0.89543,2 2,2 0.7396,0 1.37271,-0.403104 1.71875,-1 l 2.5625,0 C 6.62729,16.596896 7.2604,17 8,17 9.10457,17 10,16.104569 10,15 10,13.937664 9.17099,13.064891 8.125,13 L 6.6875,10.09375 C 6.88908,9.7815498 7,9.3992632 7,9 7,7.8954305 6.10457,7 5,7 z" />
</svg>
