<svg width="24" height="24" xmlns="http://www.w3.org/2000/svg">
  <path fill="#444" d="M 3.5,0 C 1.5783,0 0,1.5783 0,3.5 0,5.4217 1.5783,7 3.5,7 4.0955811,7 4.6321499,6.8289388 5.125,6.5625 L 10.0625,11.5 C 10.021396,11.659759 10,11.827411 10,12 c 0,1.10457 0.89543,2 2,2 0.172589,0 0.340241,-0.0214 0.5,-0.0625 l 4.9375,4.9375 C 17.171092,19.367855 17,19.904326 17,20.5 17,22.422 18.578,24 20.5,24 22.422,24 24,22.422 24,20.5 24,18.578 22.422,17 20.5,17 c -0.595674,0 -1.132145,0.171092 -1.625,0.4375 L 13.9375,12.5 C 13.978604,12.340241 14,12.172589 14,12 c 0,-1.10457 -0.89543,-2 -2,-2 -0.172589,0 -0.340241,0.0214 -0.5,0.0625 L 6.5625,5.125 C 6.8289388,4.6321499 7,4.0955811 7,3.5 7,1.5783 5.4217,0 3.5,0 z m 0,2 C 4.3483,2 5,2.6517 5,3.5 5,4.3483 4.3483,5 3.5,5 2.6517,5 2,4.3483 2,3.5 2,2.6517 2.6517,2 3.5,2 z m 17,17 C 21.348,19 22,19.652 22,20.5 22,21.348 21.348,22 20.5,22 19.652,22 19,21.348 19,20.5 19,19.652 19.652,19 20.5,19 z" />
</svg>
