<svg width="24" height="24" xmlns="http://www.w3.org/2000/svg">
  <path fill="#444" d="M 23,1 C 12.718547,10.094043 7.3701929,11.716229 7.5937503,15.375 c 0.3678119,0.186316 0.6969704,0.41572 0.96875,0.6875 0.3544634,0.354463 0.6515907,0.80008 0.84375,1.3125 C 13.218313,17.819924 14.732292,12.477793 24,2 l 0,-1 -1,0 z" />
  <path fill="#444" d="m 6.125,16 c -0.8333333,0 -1.5013955,0.235538 -1.96875,0.625 -0.4673545,0.389462 -0.7425464,0.891343 -1,1.40625 -0.5149071,1.029814 -0.9298404,2.140727 -2.3125,3.0625 L -0.53125,22 1.125,22 c 2.5,0 4.0023329,0.02647 5.15625,-0.40625 0.5769586,-0.216359 1.0431372,-0.572298 1.40625,-1.0625 0.3631128,-0.490202 0.6483443,-1.101283 0.90625,-1.875 L 8.625,18.59375 8.625,18.5 C 8.625,17.833333 8.2973174,17.234817 7.84375,16.78125 7.3901826,16.327683 6.7916667,16 6.125,16 z m 0,1 c 0.3333333,0 0.7035674,0.172317 1,0.46875 0.2783601,0.27836 0.448134,0.649594 0.46875,0.96875 -0.2279255,0.663172 -0.4403387,1.166332 -0.6875,1.5 -0.2618872,0.353548 -0.5457086,0.560109 -0.96875,0.71875 -0.6262653,0.234849 -2.0855001,0.226779 -3.5625,0.25 0.7887559,-0.858597 1.3397678,-1.742036 1.6875,-2.4375 C 4.3050464,17.983657 4.5298545,17.610538 4.8125,17.375 5.0951455,17.139462 5.4583333,17 6.125,17 z" />
</svg>
