<svg width="24" height="24" xmlns="http://www.w3.org/2000/svg">
  <path fill="#444" d="M 11,0 C 4.93671,0 0,4.9367117 0,11 c 0,6.063289 4.93671,11 11,11 2.33012,0 4.4983,-0.724986 6.28125,-1.96875 a 2,2 0 0 0 0.3125,0.375 l 3,3 a 2,2 0 1 0 2.8125,-2.8125 l -3,-3 a 2,2 0 0 0 -0.375,-0.3125 C 21.27501,15.498298 22,13.330124 22,11 22,4.9367117 17.06329,0 11,0 z m 0,2 c 4.98241,0 9,4.0175916 9,9 0,4.982409 -4.01759,9 -9,9 C 6.01759,20 2,15.982408 2,11 2,6.0175916 6.01759,2 11,2 z m -5,5 -2,3 2,0 0,6 2,0 0,-9 -2,0 z m 9,0 -2,3 2,0 0,6 2,0 0,-9 -2,0 z m -5,3 0,2 2,0 0,-2 -2,0 z m 0,3 0,2 2,0 0,-2 -2,0 z" />
</svg>
