<svg width="24" height="24" xmlns="http://www.w3.org/2000/svg">
  <path fill="#444" d="m 11,2 0,2 c 4.08897,0 7.41463,3.0491732 7.90625,7 L 17,11 l 3,3 3,-3 -2.0625,0 C 20.43854,5.951664 16.17696,2 11,2 z m 5,12 c -1.10457,0 -2,0.895431 -2,2 0,0.739604 0.4031,1.372707 1,1.71875 l 0,2.5625 C 14.4031,20.627293 14,21.260396 14,22 c 0,1.104569 0.89543,2 2,2 1.10457,0 2,-0.895431 2,-2 0,-0.739604 -0.4031,-1.372707 -1,-1.71875 l 0,-2.5625 c 0.0277,-0.01605 0.0669,-0.01393 0.0937,-0.03125 L 20,19.125 c 0.0649,1.04599 0.93766,1.875 2,1.875 1.10457,0 2,-0.895431 2,-2 0,-1.104569 -0.89543,-2 -2,-2 -0.39926,0 -0.78155,0.110924 -1.09375,0.3125 L 18,15.875 C 17.93511,14.82901 17.06234,14 16,14 z M 5,2 C 3.89543,2 3,2.8954305 3,4 3,4.3992632 3.11092,4.7815498 3.3125,5.09375 L 1.875,8 C 0.82901,8.064891 0,8.937664 0,10 c 0,1.104569 0.89543,2 2,2 0.7396,0 1.37271,-0.403104 1.71875,-1 l 2.5625,0 C 6.62729,11.596896 7.2604,12 8,12 9.10457,12 10,11.104569 10,10 10,8.8954305 9.10457,8 8,8 7.2604,8 6.62729,8.4031044 6.28125,9 L 3.71875,9 C 3.70265,8.97232 3.70485,8.933069 3.68755,8.90625 L 5.125,6 C 6.17099,5.935109 7,5.062336 7,4 7,2.8954305 6.10457,2 5,2 z" />
</svg>
