<svg width="24" height="24" xmlns="http://www.w3.org/2000/svg">
  <path fill="#444" d="M 13,2 C 7.82304,2 3.56146,5.951664 3.0625,11 L 1,11 4,14 7,11 5.09375,11 C 5.58537,7.0491732 8.91103,4 13,4 L 13,2 z M 8,14 C 6.93766,14 6.06489,14.82901 6,15.875 L 3.09375,17.3125 C 2.78155,17.110924 2.39926,17 2,17 c -1.10457,0 -2,0.895431 -2,2 0,1.104569 0.89543,2 2,2 1.06234,0 1.93511,-0.82901 2,-1.875 l 2.90625,-1.4375 c 0.0269,0.01741 0.0659,0.01512 0.0937,0.03125 l 0,2.5625 c -0.5969,0.346043 -1,0.979146 -1,1.71875 0,1.104569 0.89543,2 2,2 1.10457,0 2,-0.895431 2,-2 0,-0.739604 -0.4031,-1.372707 -1,-1.71875 l 0,-2.5625 c 0.5969,-0.346043 1,-0.979146 1,-1.71875 0,-1.104569 -0.89543,-2 -2,-2 z M 19,2 c -1.10457,0 -2,0.8954305 -2,2 0,1.062336 0.82901,1.935109 1.875,2 l 1.4375,2.90625 C 20.2926,8.937057 20.2682,8.96806 20.25,9 L 17.71875,9 C 17.37271,8.4031044 16.7396,8 16,8 c -1.10457,0 -2,0.8954305 -2,2 0,1.104569 0.89543,2 2,2 0.7396,0 1.37271,-0.403104 1.71875,-1 l 2.5625,0 c 0.34604,0.596896 0.97915,1 1.71875,1 1.10457,0 2,-0.895431 2,-2 C 24,8.937664 23.17099,8.064891 22.125,8 L 20.6875,5.09375 C 20.88908,4.7815498 21,4.3992632 21,4 21,2.8954305 20.10457,2 19,2 z" />
</svg>
