<svg width="24" height="24" xmlns="http://www.w3.org/2000/svg">
  <path fill="#444" d="m 3,13 -2,3 2,0 0,6 2,0 0,-9 z m 3,7 0,2 2,0 0,-2 z m 5.53125,-7 C 10.59177,13 9.93919,13.687915 9.5625,14.40625 9.18581,15.124585 9,15.981082 9,16.9375 l 0,1.125 c 0,0.956418 0.18581,1.812915 0.5625,2.53125 C 9.93919,21.312085 10.59177,22 11.53125,22 l 0.9375,0 c 0.93948,0 1.59206,-0.687915 1.96875,-1.40625 C 14.81419,19.875415 15,19.018918 15,18.0625 l 0,-1.125 C 15,15.981082 14.81419,15.124585 14.4375,14.40625 14.06081,13.687915 13.40823,13 12.46875,13 z m 0,2 0.9375,0 c -0.084,0 0.006,-0.03369 0.1875,0.3125 C 12.83779,15.658695 13,16.262522 13,16.9375 l 0,1.125 c 0,0.674978 -0.16221,1.278805 -0.34375,1.625 C 12.47471,20.033695 12.38475,20 12.46875,20 l -0.9375,0 c 0.084,0 -0.006,0.0337 -0.1875,-0.3125 C 11.16221,19.341305 11,18.737478 11,18.0625 l 0,-1.125 c 0,-0.674978 0.16221,-1.278805 0.34375,-1.625 C 11.52529,14.966305 11.61525,15 11.53125,15 z M 2,1 2,3 C 6.23525,3 10.12444,4.4135095 13.28125,6.75 13.10355,7.1318854 13,7.5543794 13,8 c 0,1.64501 1.35499,3 3,3 0.44562,0 0.86811,-0.103555 1.25,-0.28125 C 19.58649,13.875559 21,17.764744 21,22 l 2,0 C 23,17.228836 21.37459,12.841224 18.6875,9.3125 18.88395,8.914633 19,8.4700861 19,8 19,6.35499 17.64501,5 16,5 15.52991,5 15.08537,5.1160509 14.6875,5.3125 11.15878,2.6254142 6.77116,1 2,1 z" />
</svg>
