<svg width="24" height="24" xmlns="http://www.w3.org/2000/svg">
  <path fill="#444" d="M 6.5026,-0.0026008 C 2.92459,-0.0026008 0,2.9219967 0,6.5000034 0,10.07801 2.92459,13.002608 6.5026,13.002608 c 3.57801,0 6.5026,-2.924598 6.5026,-6.5026046 0,-3.5780067 -2.92459,-6.5026042 -6.5026,-6.5026042 z m 0,2.0052083 c 2.49713,0 4.4974,2 4.4974,4.4973959 0,2.4971256 -2,4.4973956 -4.4974,4.4973956 -2.49713,0 -4.4974,-2 -4.4974,-4.4973956 0,-2.4971256 2,-4.4973959 4.4974,-4.4973959 z M 19.53385,13 c -0.93948,0 -1.59206,0.687915 -1.96875,1.40625 -0.37669,0.718335 -0.5625,1.574832 -0.5625,2.53125 l 0,1.125 c 0,0.956418 0.18581,1.812915 0.5625,2.53125 C 17.94179,21.312085 18.59437,22 19.53385,22 l 0.9375,0 c 0.93948,0 1.59206,-0.687915 1.96875,-1.40625 0.37669,-0.718335 0.5625,-1.574832 0.5625,-2.53125 l 0,-1.125 c 0,-0.956418 -0.18581,-1.812915 -0.5625,-2.53125 C 22.06341,13.687915 21.41083,13 20.47135,13 l -0.9375,0 z m 0,2 0.9375,0 c -0.084,0 0.006,-0.03369 0.1875,0.3125 0.18154,0.346195 0.34375,0.950022 0.34375,1.625 l 0,1.125 c 0,0.674978 -0.16221,1.278805 -0.34375,1.625 C 20.47731,20.033695 20.38735,20 20.47135,20 l -0.9375,0 c 0.084,0 -0.006,0.0337 -0.1875,-0.3125 -0.18154,-0.346195 -0.34375,-0.950022 -0.34375,-1.625 l 0,-1.125 c 0,-0.674978 0.16221,-1.278805 0.34375,-1.625 C 19.52789,14.966305 19.61785,15 19.53385,15 z m -7.59375,0.625 -1.875,0.75 2,5 a 1,1 0 0 0 1.875,0 l 2,-5 -1.875,-0.75 -1.0625,2.65625 -1.0625,-2.65625 z" />
</svg>
