<svg width="24" height="24" xmlns="http://www.w3.org/2000/svg">
  <path fill="#444" d="M 10.53125,13 C 9.59177,13 8.93919,13.687915 8.5625,14.40625 8.18581,15.124585 8,15.981082 8,16.9375 l 0,1.125 c 0,0.956418 0.18581,1.812915 0.5625,2.53125 C 8.93919,21.312085 9.59177,22 10.53125,22 l 0.9375,0 c 0.93948,0 1.59206,-0.687915 1.96875,-1.40625 C 13.81419,19.875415 14,19.018918 14,18.0625 l 0,-1.125 C 14,15.981082 13.81419,15.124585 13.4375,14.40625 13.06081,13.687915 12.40823,13 11.46875,13 z m 0,2 0.9375,0 c -0.084,0 0.006,-0.03369 0.1875,0.3125 C 11.83779,15.658695 12,16.262522 12,16.9375 l 0,1.125 c 0,0.674978 -0.16221,1.278805 -0.34375,1.625 C 11.47471,20.033695 11.38475,20 11.46875,20 l -0.9375,0 c 0.084,0 -0.006,0.0337 -0.1875,-0.3125 C 10.16221,19.341305 10,18.737478 10,18.0625 l 0,-1.125 c 0,-0.674978 0.16221,-1.278805 0.34375,-1.625 C 10.52529,14.966305 10.61525,15 10.53125,15 z m -8.625,-1 C 1.41467,14.04633 0.99787,14.506242 1,15 l 0,6 c 5e-5,0.523584 0.47642,0.999948 1,1 l 5,0 0,-2 -4,0 0,-1 3,0 c 0.52358,-5.2e-5 0.99995,-0.476416 1,-1 L 7,15 C 6.99995,14.476416 6.52358,14.000052 6,14 L 2,14 C 1.9688,13.9985 1.9375,13.9985 1.9063,14 z M 3,16 5,16 5,17 3,17 z M 2,1 2,3 C 6.23525,3 10.12444,4.4135095 13.28125,6.75 13.10355,7.1318854 13,7.5543794 13,8 c 0,1.64501 1.35499,3 3,3 0.44562,0 0.86811,-0.103555 1.25,-0.28125 C 19.58649,13.875559 21,17.764744 21,22 l 2,0 C 23,17.228836 21.37459,12.841224 18.6875,9.3125 18.88395,8.914633 19,8.4700861 19,8 19,6.35499 17.64501,5 16,5 15.52991,5 15.08537,5.1160509 14.6875,5.3125 11.15878,2.6254142 6.77116,1 2,1 z" />
</svg>
