<svg width="24" height="24" xmlns="http://www.w3.org/2000/svg">
  <path fill="#444" d="m 11.90625,11 a 1,1 0 0 0 -0.625,0.28125 l -2,2 A 1,1 0 0 0 9,14 l 0,2 a 1,1 0 0 0 0.28125,0.71875 l 2,2 A 1,1 0 0 0 12,19 l 3,0 0,-2 -2.5625,0 L 11,15.5625 11,14.4375 12.4375,13 15,13 l 0,-2 -3,0 a 1,1 0 0 0 -0.0937,0 z M 8,6 C 8,7.6568543 6.65685,9 5,9 3.34315,9 2,7.656854 2,6 2,4.3431458 3.34315,3 5,3 6.65685,3 8,4.3431458 8,6 z m 10.53126,3.9999983 c -0.93948,0 -1.59206,0.6879147 -1.96875,1.4062497 -0.37669,0.718336 -0.5625,1.574833 -0.5625,2.531251 l 0,1.125001 c 0,0.956418 0.18581,1.812915 0.5625,2.53125 C 16.9392,18.312085 17.59178,19 18.53126,19 l 0.9375,0 c 0.93948,0 1.59206,-0.687915 1.96875,-1.40625 0.37669,-0.718335 0.5625,-1.574832 0.5625,-2.53125 l 0,-1.125001 c 0,-0.956418 -0.18581,-1.812915 -0.5625,-2.531251 -0.37669,-0.718335 -1.02927,-1.4062497 -1.96875,-1.4062497 z m 0,1.9999997 0.9375,0 c -0.084,0 0.006,-0.03369 0.1875,0.3125 0.18154,0.346195 0.34375,0.950022 0.34375,1.625 l 0,1.125001 c 0,0.674978 -0.16221,1.278805 -0.34375,1.625 -0.18154,0.346195 -0.2715,0.3125 -0.1875,0.3125 l -0.9375,0 c 0.084,0 -0.006,0.0337 -0.1875,-0.3125 -0.18154,-0.346195 -0.34375,-0.950022 -0.34375,-1.625 l 0,-1.125001 c 0,-0.674978 0.16221,-1.278805 0.34375,-1.625 0.18154,-0.346196 0.2715,-0.3125 0.1875,-0.3125 z" />
</svg>
